<svg version="1.1" viewBox="0.0 0.0 287.12335958005247 287.6955380577428" fill="none" stroke="none" stroke-linecap="square" stroke-miterlimit="10" xmlns:xlink="http://www.w3.org/1999/xlink" xmlns="http://www.w3.org/2000/svg"><clipPath id="p.0"><path d="m0 0l287.12335 0l0 287.69553l-287.12335 0l0 -287.69553z" clip-rule="nonzero"/></clipPath><g clip-path="url(#p.0)"><path fill="#000000" fill-opacity="0.0" d="m0 0l287.12335 0l0 287.69553l-287.12335 0z" fill-rule="evenodd"/><path fill="#000000" d="m0.12860893 48.226677l0 0c0 -26.405827 21.406153 -47.811977 47.81198 -47.811977l191.24219 0l0 0c12.680527 0 24.841705 5.037319 33.808167 14.003804c8.966492 8.966486 14.003815 21.127651 14.003815 33.808174l0 191.24219c0 26.405838 -21.406158 47.811996 -47.81198 47.811996l-191.24219 0c-26.405828 0 -47.81198 -21.406158 -47.81198 -47.811996z" fill-rule="evenodd"/><path fill="#ffffff" d="m48.90026 143.84776l47.33071 0l0 -91.842514l94.66142 0l0 91.842514l47.330704 0l-94.66142 91.84253z" fill-rule="evenodd"/></g></svg>